<svg width="300" height="186" viewBox="0 0 300 186" fill="none" xmlns="http://www.w3.org/2000/svg">
<rect width="300" height="186" fill="white"/>
<g clip-path="url(#clip0_52_452)">
<path d="M211.762 101.901C195.351 111.667 174.545 111.342 156.076 109.034C152.81 108.623 146.746 108.259 144.568 105.587C147.398 104.216 151.363 105.641 154.391 105.696C157.952 105.758 161.509 105.693 165.064 105.502C185.457 104.395 209.179 98.0669 217.444 77.4652C223.079 63.4236 214.671 48.2589 203.139 39.5148C193.944 32.5443 180.728 28.3775 169.141 31.0418C160.058 33.1329 152.237 38.8642 145.935 45.5714C132.727 59.6285 125.376 77.9377 119.757 96.1849C115.458 110.126 111.961 124.462 105.309 137.512C98.6574 150.562 88.334 162.536 74.3787 167.779C57.8088 174.006 37.4401 169.073 25.7816 155.961C19.4238 148.843 15.5933 139.41 16.2449 129.999C16.8919 120.832 20.5095 112.102 26.5763 105.068C32.6003 98.1985 41.7396 92.2659 49.4325 87.5182C42.725 93.567 35.4136 100.685 31.3446 108.639C27.2756 116.593 25.4239 125.887 27.53 134.554C28.5184 138.633 30.3436 142.476 32.8957 145.851C35.4477 149.226 38.674 152.062 42.3802 154.19C46.0864 156.318 50.1961 157.693 54.4619 158.233C58.7277 158.773 63.0614 158.466 67.2024 157.332C83.7087 152.816 93.6348 136.42 99.0548 120.574C104.737 103.938 107.352 86.4029 113.36 69.8751C119.718 52.387 130.319 35.7972 146.118 25.4344C173.933 7.17173 211.706 16.1404 226.838 45.6721C227.618 47.1844 228.315 48.7355 228.928 50.319C233.975 63.3771 232.83 78.9058 224.613 90.3296C221.193 95.0084 216.818 98.9478 211.762 101.901Z" fill="#1361AC"/>
<path d="M57.7306 88.284C54.8458 89.771 21.7854 139.935 62.9837 155.185C62.9837 155.185 36.9884 156.812 32.3075 132.996C31.8784 132.074 25.6875 108.142 57.7306 88.284Z" fill="#75C04C"/>
<path d="M48.3927 114.454C49.3066 114.942 49.0841 115.91 49.1874 116.84C49.3623 117.97 49.553 119.101 49.7755 120.224C50.195 122.473 50.7631 124.692 51.4762 126.869C53.3835 132.531 56.9916 138.851 62.8487 141.36C63.0235 141.438 63.2063 141.515 63.397 141.585C67.6488 143.173 72.5442 142.274 76.5735 140.206C80.6027 138.138 83.9564 135.048 87.1751 131.95C86.3912 133.05 85.7052 134.214 85.1247 135.428C83.5461 138.33 81.5821 141.018 79.2835 143.42C75.7549 147.239 70.9787 151.165 65.3838 151.042C56.8326 150.856 51.6908 144.272 49.4894 136.853C48.3974 133.205 47.7361 129.447 47.5185 125.653C47.3119 122.656 46.692 117.018 48.3927 114.454Z" fill="#F0A134"/>
<path d="M211.295 73.3438C214.394 59.3177 204.333 45.9808 191.498 40.5593C178.664 35.1378 165.543 39.6454 154.838 47.3439C151.856 49.5082 149.038 51.8792 146.406 54.4383C147.956 52.9435 150.912 51.9987 152.843 51.139C157.929 48.8273 163.326 47.2339 168.873 46.4068C178.481 45.0746 188.367 47.6537 196.45 52.7732C199.955 54.9431 202.959 57.7995 205.271 61.161C206.924 63.5232 211.939 70.4317 211.295 73.3438Z" fill="#75C04C"/>
<path d="M177.312 53.2456C178.727 52.4711 180.594 52.7886 182.12 53.1449C194.041 55.9254 207.845 67.5428 205.056 80.7713C203.784 86.8124 199.111 91.0256 193.874 94.0462C195.153 93.3104 195.082 88.4311 195.233 87.1377C195.699 83.8578 195.681 80.5297 195.177 77.2551C194.337 72.3794 192.324 67.7667 189.304 63.7943C187.642 61.7118 185.723 59.8363 183.59 58.2101C181.826 56.8238 178.337 55.1509 177.312 53.2456Z" fill="#F0A134"/>
</g>
<path d="M146.386 140.721C146.26 139.538 145.727 138.617 144.788 137.958C143.858 137.299 142.648 136.969 141.159 136.969C140.111 136.969 139.213 137.127 138.463 137.443C137.714 137.759 137.141 138.188 136.744 138.73C136.346 139.271 136.143 139.89 136.134 140.585C136.134 141.163 136.265 141.664 136.527 142.088C136.798 142.513 137.163 142.874 137.624 143.172C138.084 143.461 138.594 143.704 139.154 143.903C139.714 144.102 140.278 144.269 140.847 144.404L143.447 145.054C144.495 145.298 145.501 145.628 146.467 146.043C147.442 146.458 148.314 146.982 149.081 147.614C149.858 148.246 150.472 149.009 150.923 149.903C151.374 150.796 151.6 151.844 151.6 153.045C151.6 154.67 151.185 156.101 150.354 157.338C149.524 158.566 148.323 159.527 146.752 160.222C145.19 160.908 143.298 161.252 141.077 161.252C138.919 161.252 137.046 160.918 135.457 160.249C133.877 159.581 132.64 158.606 131.746 157.324C130.861 156.042 130.383 154.48 130.311 152.638H135.254C135.326 153.604 135.624 154.408 136.148 155.049C136.671 155.69 137.353 156.168 138.193 156.484C139.041 156.8 139.989 156.958 141.037 156.958C142.129 156.958 143.086 156.796 143.908 156.471C144.738 156.137 145.388 155.676 145.858 155.09C146.327 154.494 146.567 153.798 146.576 153.004C146.567 152.282 146.354 151.686 145.939 151.216C145.524 150.738 144.942 150.341 144.192 150.025C143.452 149.699 142.585 149.411 141.592 149.158L138.436 148.345C136.152 147.758 134.346 146.869 133.019 145.677C131.701 144.476 131.042 142.883 131.042 140.897C131.042 139.262 131.484 137.831 132.369 136.603C133.263 135.376 134.477 134.423 136.012 133.746C137.547 133.06 139.285 132.717 141.226 132.717C143.194 132.717 144.919 133.06 146.4 133.746C147.889 134.423 149.059 135.367 149.907 136.576C150.756 137.777 151.194 139.159 151.221 140.721H146.386ZM171.153 140.721C171.026 139.538 170.494 138.617 169.555 137.958C168.625 137.299 167.415 136.969 165.925 136.969C164.878 136.969 163.979 137.127 163.23 137.443C162.481 137.759 161.907 138.188 161.51 138.73C161.113 139.271 160.91 139.89 160.901 140.585C160.901 141.163 161.032 141.664 161.293 142.088C161.564 142.513 161.93 142.874 162.39 143.172C162.851 143.461 163.361 143.704 163.921 143.903C164.481 144.102 165.045 144.269 165.614 144.404L168.214 145.054C169.261 145.298 170.268 145.628 171.234 146.043C172.209 146.458 173.08 146.982 173.848 147.614C174.624 148.246 175.238 149.009 175.69 149.903C176.141 150.796 176.367 151.844 176.367 153.045C176.367 154.67 175.951 156.101 175.121 157.338C174.29 158.566 173.089 159.527 171.518 160.222C169.956 160.908 168.065 161.252 165.844 161.252C163.686 161.252 161.813 160.918 160.224 160.249C158.644 159.581 157.407 158.606 156.513 157.324C155.628 156.042 155.149 154.48 155.077 152.638H160.02C160.093 153.604 160.391 154.408 160.914 155.049C161.438 155.69 162.12 156.168 162.959 156.484C163.808 156.8 164.756 156.958 165.803 156.958C166.896 156.958 167.853 156.796 168.674 156.471C169.505 156.137 170.155 155.676 170.625 155.09C171.094 154.494 171.333 153.798 171.342 153.004C171.333 152.282 171.121 151.686 170.706 151.216C170.29 150.738 169.708 150.341 168.959 150.025C168.218 149.699 167.352 149.411 166.358 149.158L163.203 148.345C160.919 147.758 159.113 146.869 157.786 145.677C156.468 144.476 155.809 142.883 155.809 140.897C155.809 139.262 156.251 137.831 157.136 136.603C158.03 135.376 159.244 134.423 160.779 133.746C162.314 133.06 164.052 132.717 165.993 132.717C167.961 132.717 169.686 133.06 171.166 133.746C172.656 134.423 173.825 135.367 174.674 136.576C175.523 137.777 175.96 139.159 175.987 140.721H171.153ZM193.238 144.946V148.982H180.751V144.946H193.238ZM208.071 160.832V133.096H218.688C220.693 133.096 222.358 133.412 223.686 134.044C225.022 134.667 226.02 135.52 226.679 136.603C227.347 137.687 227.681 138.915 227.681 140.287C227.681 141.416 227.464 142.382 227.031 143.185C226.597 143.98 226.015 144.625 225.284 145.122C224.552 145.619 223.735 145.975 222.832 146.192V146.463C223.817 146.517 224.76 146.819 225.663 147.37C226.575 147.912 227.32 148.679 227.897 149.672C228.475 150.666 228.764 151.866 228.764 153.275C228.764 154.71 228.417 156.001 227.721 157.148C227.026 158.286 225.979 159.184 224.579 159.843C223.18 160.502 221.419 160.832 219.298 160.832H208.071ZM213.095 156.633H218.499C220.322 156.633 221.636 156.286 222.44 155.591C223.252 154.886 223.659 153.984 223.659 152.882C223.659 152.06 223.455 151.32 223.049 150.661C222.643 149.993 222.065 149.469 221.316 149.09C220.566 148.702 219.672 148.508 218.634 148.508H213.095V156.633ZM213.095 144.892H218.065C218.932 144.892 219.713 144.734 220.408 144.418C221.103 144.093 221.65 143.637 222.047 143.05C222.453 142.454 222.656 141.75 222.656 140.937C222.656 139.863 222.277 138.978 221.519 138.283C220.769 137.588 219.654 137.24 218.174 137.24H213.095V144.892ZM233.135 160.832V133.096H238.16V144.838H251.012V133.096H256.05V160.832H251.012V149.049H238.16V160.832H233.135ZM261.514 160.832V133.096H271.915C274.046 133.096 275.834 133.493 277.278 134.288C278.732 135.082 279.829 136.175 280.569 137.565C281.319 138.946 281.693 140.517 281.693 142.278C281.693 144.057 281.319 145.637 280.569 147.018C279.82 148.399 278.714 149.487 277.251 150.282C275.789 151.067 273.987 151.46 271.848 151.46H264.954V147.329H271.17C272.416 147.329 273.437 147.113 274.231 146.679C275.026 146.246 275.613 145.65 275.992 144.892C276.38 144.133 276.574 143.262 276.574 142.278C276.574 141.294 276.38 140.427 275.992 139.678C275.613 138.928 275.021 138.346 274.218 137.931C273.423 137.506 272.398 137.294 271.143 137.294H266.539V160.832H261.514Z" fill="black"/>
<defs>
<clipPath id="clip0_52_452">
<rect width="215.822" height="154.443" fill="white" transform="translate(16.1589 16)"/>
</clipPath>
</defs>
</svg>
